<svg xmlns="http://www.w3.org/2000/svg" viewBox="0 0 100 128.28"><defs><style>.cls-1{fill:#fff;}</style></defs><g id="Layer_2" data-name="Layer 2"><g id="Layer_1-2" data-name="Layer 1"><path class="cls-1" d="M92.14,0H29.67a7.89,7.89,0,0,0-7.86,7.86V70.33a7.89,7.89,0,0,0,7.86,7.86H92.14A7.89,7.89,0,0,0,100,70.33V7.86A7.89,7.89,0,0,0,92.14,0ZM77.32,39.36A16.69,16.69,0,1,1,60.09,22.13,16.75,16.75,0,0,1,77.32,39.36Z"/><rect class="cls-1" y="81.18" width="47.1" height="47.1" rx="8.11"/><path class="cls-1" d="M5.88,38.62H13a5.89,5.89,0,0,1,5.89,5.89V72.3A5.88,5.88,0,0,1,13,78.19H5.88A5.88,5.88,0,0,1,0,72.3V44.51A5.88,5.88,0,0,1,5.88,38.62Z"/></g></g></svg>